<svg width="178" height="206" viewBox="0 0 178 206" fill="none" xmlns="http://www.w3.org/2000/svg">
<path d="M167.352 78.6338C170.416 90.0472 170.958 101.991 168.939 113.635C166.921 125.279 162.391 136.343 155.665 146.06C148.938 155.776 140.176 163.911 129.988 169.899C119.8 175.887 108.43 179.584 96.6683 180.734C95.3871 180.862 94.1068 180.958 92.8274 181.022C91.0946 181.113 89.3672 181.147 87.6452 181.123C72.4964 180.924 57.7035 176.502 44.9306 168.355C32.1576 160.207 21.9113 148.658 15.3442 135.005C8.77713 121.352 6.14975 106.138 7.75763 91.0731C9.36552 76.0085 15.1449 61.6914 24.4456 49.7322C33.7464 37.773 46.1995 28.6461 60.4043 23.3782C74.6091 18.1103 90.002 16.9104 104.852 19.9134C119.701 22.9164 133.418 30.0031 144.46 40.3766C155.501 50.75 163.43 63.9986 167.353 78.632L167.352 78.6338Z" fill="white" fill-opacity="0.2"/>
<path d="M45.9701 137.169C45.8515 137.28 45.7819 137.434 45.7766 137.597C45.7712 137.759 45.8305 137.917 45.9414 138.036L90.343 185.489C90.4543 185.607 90.6081 185.677 90.7706 185.682C90.9331 185.688 91.091 185.628 91.2099 185.517L127.024 152.006C127.143 151.895 127.212 151.741 127.218 151.579C127.223 151.416 127.164 151.258 127.053 151.139L82.6496 103.687C82.5384 103.568 82.3847 103.499 82.2222 103.493C82.0597 103.488 81.9016 103.547 81.7828 103.658L45.9701 137.169Z" fill="#3F3D56"/>
<path d="M50.2882 137.75L90.92 181.173L122.705 151.433L82.0727 108.008L50.2882 137.75Z" fill="white"/>
<path d="M61.1324 140.812C60.9012 141.125 60.7989 141.515 60.8466 141.902C60.8944 142.288 61.0885 142.642 61.389 142.889C62.022 143.573 62.9483 143.75 63.445 143.287L86.7235 121.505C86.9547 121.192 87.057 120.802 87.0093 120.415C86.9616 120.029 86.7674 119.676 86.4669 119.428C85.8339 118.744 84.9076 118.567 84.4109 119.03L61.1324 140.812Z" fill="#C00000"/>
<path d="M66.1587 146.184C65.9275 146.497 65.8252 146.887 65.873 147.274C65.9207 147.66 66.1148 148.014 66.4153 148.261C67.0483 148.945 67.9747 149.122 68.4714 148.659L91.7499 126.877C91.9811 126.564 92.0833 126.174 92.0356 125.787C91.9878 125.401 91.7937 125.048 91.4932 124.8C90.8602 124.117 89.9339 123.939 89.4372 124.402L66.1587 146.184Z" fill="#C00000"/>
<path d="M71.1874 151.559C70.9562 151.872 70.8539 152.262 70.9016 152.649C70.9494 153.035 71.1435 153.389 71.444 153.636C72.077 154.32 73.0033 154.497 73.5 154.034L96.7825 132.255C97.0137 131.942 97.1159 131.552 97.0682 131.166C97.0204 130.779 96.8264 130.426 96.5259 130.178C95.8929 129.495 94.9665 129.317 94.4698 129.78L71.1874 151.559Z" fill="#C00000"/>
<path d="M76.2114 156.924C75.9801 157.238 75.8778 157.628 75.9256 158.014C75.9733 158.4 76.1675 158.754 76.468 159.001C77.101 159.685 78.0273 159.863 78.524 159.4L101.806 137.621C102.038 137.307 102.14 136.917 102.092 136.531C102.044 136.145 101.85 135.791 101.55 135.544C100.917 134.86 99.9905 134.682 99.4938 135.145L76.2114 156.924Z" fill="#C00000"/>
<path d="M81.2383 162.299C81.0071 162.613 80.9049 163.003 80.9526 163.389C81.0004 163.775 81.1944 164.129 81.4949 164.376C82.1279 165.06 83.0542 165.238 83.5509 164.775L106.831 142.986C107.062 142.673 107.164 142.283 107.117 141.896C107.069 141.51 106.875 141.156 106.574 140.909C105.941 140.225 105.015 140.048 104.518 140.511L81.2383 162.299Z" fill="#C00000"/>
<path d="M71.4591 104.699L96.476 99.6058L97.8607 77.2017L75.0461 78.4206L71.4591 104.699Z" fill="#2F2E41"/>
<path d="M87.8185 94.7445C93.2557 93.2876 96.4824 87.6988 95.0255 82.2617C93.5686 76.8245 87.9798 73.5978 82.5426 75.0547C77.1055 76.5116 73.8788 82.1003 75.3357 87.5375C76.7926 92.9747 82.3813 96.2014 87.8185 94.7445Z" fill="#FFB8B8"/>
<path d="M134.107 166.379L134.376 167.129C123.127 174.716 110.17 179.391 96.6681 180.734L92.8273 181.022L94.2393 172.374L95.1645 166.706L89.6553 149.43L89.0834 147.643L88.3569 145.362L89.8403 144.955L100.384 142.061L110.433 139.299L111.97 138.879C124.763 148.139 135.283 155.633 134.107 166.379Z" fill="#2F2E41"/>
<path d="M111.782 138.773L88.9786 147.683L83.7543 131.666C79.1106 125.371 79.2494 118.603 83.4646 111.435L83.3941 106.516C83.3756 105.225 83.7113 103.954 84.3647 102.841C85.0181 101.728 85.9642 100.815 87.1002 100.202C90.4826 96.885 94.7333 94.5916 99.3624 93.5856C101.52 93.8247 103.543 94.7514 105.133 96.2287C106.723 97.7059 107.796 99.6555 108.193 101.789C110.611 113.968 111.814 126.357 111.782 138.773Z" fill="#C00000"/>
<path d="M74.6148 75.264C74.6148 75.264 70.023 78.4857 71.701 85.274C71.9982 86.4105 72.4527 87.5 73.0512 88.5109C73.6637 89.7382 74.0147 91.0793 74.0822 92.4494C74.1496 93.8194 73.932 95.1885 73.443 96.47C72.6169 99.1887 71.9524 101.954 71.4528 104.751L77.3388 103.774L75.7402 94.0191C74.9653 89.2897 74.891 84.472 75.5197 79.7209L75.532 79.6216C75.532 79.6216 79.3869 83.4874 84.3464 82.0071L82.046 80.7642C85.5078 81.1222 88.9927 81.2028 92.4673 81.0052C92.8702 80.9553 93.2791 81.0163 93.6499 81.1815C94.0207 81.3467 94.3395 81.6099 94.5718 81.9428C94.8041 82.2757 94.9413 82.6657 94.9685 83.0707C94.9956 83.4758 94.9119 83.8806 94.7261 84.2416L94.6822 84.3238C93.1905 87.0837 90.4192 93.3113 94.0618 96.4692C97.7045 99.6272 95.8963 101.323 95.8963 101.323L99.1596 98.0347L100.614 96.4455L101.037 97.863L109.931 94.0525C109.931 94.0525 112.305 92.9589 105.194 88.5218C104.023 87.4455 103.281 85.9822 103.104 84.4017C103.152 82.7182 102.797 81.0476 102.071 79.5279C98.8967 73.2366 90.285 61.4222 74.6148 75.264Z" fill="#2F2E41"/>
<path d="M87.8569 115.638L88.0556 117.588L90.1282 138.043L89.8401 144.954L89.7404 147.38L89.6567 149.423L88.6243 174.206L87.9028 179.347C86.9317 180.034 86.1997 181.008 85.8091 182.132C85.4185 183.256 85.3889 184.473 85.7244 185.615C86.0599 186.756 86.7437 187.764 87.6803 188.498C88.6168 189.231 89.7592 189.654 90.9477 189.706C92.1362 189.759 93.3114 189.439 94.3089 188.79C95.3065 188.142 96.0765 187.198 96.5112 186.091C96.946 184.983 97.0238 183.768 96.7337 182.614C96.4436 181.46 95.8003 180.426 94.8935 179.656L100.17 143.304L100.389 142.046L101.067 138.21L97.9974 114.742L97.8047 113.267L87.8569 115.638Z" fill="#FFB8B8"/>
<path d="M100.087 114.846C95.4431 114.239 90.7483 115.497 87.0299 118.344L85.2505 106.32C84.8109 104.877 84.9553 103.319 85.6525 101.981C86.3498 100.643 87.5442 99.6323 88.979 99.1658C90.4315 98.6937 92.012 98.818 93.3729 99.5113C94.7338 100.204 95.7635 101.41 96.2357 102.862L96.2409 102.882L100.087 114.846Z" fill="#C00000"/>
</svg>
