<svg width="111" height="206" viewBox="0 0 111 206" fill="none" xmlns="http://www.w3.org/2000/svg">
<path d="M178.352 78.6338C181.416 90.0472 181.958 101.991 179.939 113.635C177.921 125.279 173.391 136.343 166.665 146.06C159.938 155.776 151.176 163.911 140.988 169.899C130.8 175.887 119.43 179.584 107.668 180.734C106.387 180.862 105.107 180.958 103.827 181.022C102.095 181.113 100.367 181.147 98.6452 181.123C83.4964 180.924 68.7035 176.502 55.9306 168.355C43.1576 160.207 32.9113 148.658 26.3442 135.005C19.7771 121.352 17.1497 106.138 18.7576 91.0731C20.3655 76.0085 26.1449 61.6914 35.4456 49.7322C44.7464 37.773 57.1995 28.6461 71.4043 23.3782C85.6091 18.1103 101.002 16.9104 115.852 19.9134C130.701 22.9164 144.418 30.0031 155.46 40.3766C166.501 50.75 174.43 63.9986 178.353 78.632L178.352 78.6338Z" fill="white" fill-opacity="0.2"/>
<path d="M56.9701 137.169C56.8515 137.28 56.7819 137.434 56.7766 137.597C56.7712 137.759 56.8305 137.917 56.9414 138.036L101.343 185.489C101.454 185.607 101.608 185.677 101.771 185.682C101.933 185.688 102.091 185.628 102.21 185.517L138.024 152.006C138.143 151.895 138.212 151.741 138.218 151.579C138.223 151.416 138.164 151.258 138.053 151.139L93.6496 103.687C93.5384 103.568 93.3847 103.499 93.2222 103.493C93.0597 103.488 92.9016 103.547 92.7828 103.658L56.9701 137.169Z" fill="#3F3D56"/>
<path d="M61.2882 137.75L101.92 181.173L133.705 151.433L93.0727 108.008L61.2882 137.75Z" fill="white"/>
<path d="M72.1324 140.812C71.9012 141.125 71.7989 141.515 71.8466 141.902C71.8944 142.288 72.0885 142.642 72.389 142.889C73.022 143.573 73.9483 143.75 74.445 143.287L97.7235 121.505C97.9547 121.192 98.057 120.802 98.0093 120.415C97.9616 120.029 97.7674 119.676 97.4669 119.428C96.8339 118.744 95.9076 118.567 95.4109 119.03L72.1324 140.812Z" fill="#C00000"/>
<path d="M77.1587 146.184C76.9275 146.497 76.8252 146.887 76.873 147.274C76.9207 147.66 77.1148 148.014 77.4153 148.261C78.0483 148.945 78.9747 149.122 79.4714 148.659L102.75 126.877C102.981 126.564 103.083 126.174 103.036 125.787C102.988 125.401 102.794 125.048 102.493 124.8C101.86 124.117 100.934 123.939 100.437 124.402L77.1587 146.184Z" fill="#C00000"/>
<path d="M82.1874 151.559C81.9562 151.872 81.8539 152.262 81.9016 152.649C81.9494 153.035 82.1435 153.389 82.444 153.636C83.077 154.32 84.0033 154.497 84.5 154.034L107.782 132.255C108.014 131.942 108.116 131.552 108.068 131.166C108.02 130.779 107.826 130.426 107.526 130.178C106.893 129.495 105.967 129.317 105.47 129.78L82.1874 151.559Z" fill="#C00000"/>
<path d="M87.2114 156.924C86.9801 157.238 86.8778 157.628 86.9256 158.014C86.9733 158.4 87.1675 158.754 87.468 159.001C88.101 159.685 89.0273 159.863 89.524 159.4L112.806 137.621C113.038 137.307 113.14 136.917 113.092 136.531C113.044 136.145 112.85 135.791 112.55 135.544C111.917 134.86 110.991 134.682 110.494 135.145L87.2114 156.924Z" fill="#C00000"/>
<path d="M92.2383 162.299C92.0071 162.613 91.9049 163.003 91.9526 163.389C92.0004 163.775 92.1944 164.129 92.4949 164.376C93.1279 165.06 94.0542 165.238 94.5509 164.775L117.831 142.986C118.062 142.673 118.164 142.283 118.117 141.896C118.069 141.51 117.875 141.156 117.574 140.909C116.941 140.225 116.015 140.048 115.518 140.511L92.2383 162.299Z" fill="#C00000"/>
<path d="M82.4591 104.699L107.476 99.6058L108.861 77.2017L86.0461 78.4206L82.4591 104.699Z" fill="#2F2E41"/>
<path d="M98.8185 94.7445C104.256 93.2876 107.482 87.6988 106.025 82.2617C104.569 76.8245 98.9798 73.5978 93.5426 75.0547C88.1055 76.5116 84.8788 82.1003 86.3357 87.5375C87.7926 92.9747 93.3813 96.2014 98.8185 94.7445Z" fill="#FFB8B8"/>
<path d="M145.107 166.379L145.376 167.129C134.127 174.716 121.17 179.391 107.668 180.734L103.827 181.022L105.239 172.374L106.165 166.706L100.655 149.43L100.083 147.643L99.3569 145.362L100.84 144.955L111.384 142.061L121.433 139.299L122.97 138.879C135.763 148.139 146.283 155.633 145.107 166.379Z" fill="#2F2E41"/>
<path d="M122.782 138.773L99.9786 147.683L94.7543 131.666C90.1106 125.371 90.2494 118.603 94.4646 111.435L94.3941 106.516C94.3756 105.225 94.7113 103.954 95.3647 102.841C96.0181 101.728 96.9642 100.815 98.1002 100.202V100.202C101.483 96.885 105.733 94.5916 110.362 93.5856C112.52 93.8247 114.543 94.7514 116.133 96.2287C117.723 97.7059 118.796 99.6555 119.193 101.789C121.611 113.968 122.814 126.357 122.782 138.773Z" fill="#C00000"/>
<path d="M85.6148 75.264C85.6148 75.264 81.023 78.4857 82.701 85.274C82.9982 86.4105 83.4527 87.5 84.0512 88.5109C84.6637 89.7382 85.0147 91.0793 85.0822 92.4494C85.1496 93.8194 84.932 95.1885 84.443 96.47C83.6169 99.1887 82.9524 101.954 82.4528 104.751V104.751L88.3388 103.774L86.7402 94.0191C85.9653 89.2897 85.891 84.472 86.5197 79.7209L86.532 79.6216C86.532 79.6216 90.3869 83.4874 95.3464 82.0071L93.046 80.7642C96.5078 81.1222 99.9927 81.2028 103.467 81.0052C103.87 80.9553 104.279 81.0163 104.65 81.1815C105.021 81.3467 105.339 81.6099 105.572 81.9428C105.804 82.2757 105.941 82.6657 105.968 83.0707C105.996 83.4758 105.912 83.8806 105.726 84.2416L105.682 84.3238C104.19 87.0837 101.419 93.3113 105.062 96.4692C108.705 99.6272 106.896 101.323 106.896 101.323L110.16 98.0347L111.614 96.4455L112.037 97.863L120.931 94.0525C120.931 94.0525 123.305 92.9589 116.194 88.5218C115.023 87.4455 114.281 85.9822 114.104 84.4017C114.152 82.7182 113.797 81.0476 113.071 79.5279C109.897 73.2366 101.285 61.4222 85.6148 75.264Z" fill="#2F2E41"/>
<path d="M98.8569 115.638L99.0556 117.588L101.128 138.043L100.84 144.954L100.74 147.38L100.657 149.423L99.6243 174.206L98.9028 179.347C97.9317 180.034 97.1997 181.008 96.8091 182.132C96.4185 183.256 96.3889 184.473 96.7244 185.615C97.0599 186.756 97.7437 187.764 98.6803 188.498C99.6168 189.231 100.759 189.654 101.948 189.706C103.136 189.759 104.311 189.438 105.309 188.79C106.306 188.142 107.076 187.198 107.511 186.091C107.946 184.983 108.024 183.768 107.734 182.614C107.444 181.46 106.8 180.426 105.894 179.656L111.17 143.304L111.389 142.046L112.067 138.21L108.997 114.742L108.805 113.267L98.8569 115.638Z" fill="#FFB8B8"/>
<path d="M111.087 114.846C106.443 114.239 101.748 115.497 98.0299 118.344L96.2505 106.32C95.8109 104.877 95.9553 103.319 96.6525 101.981C97.3498 100.643 98.5442 99.6323 99.979 99.1658C101.431 98.6937 103.012 98.818 104.373 99.5113C105.734 100.204 106.764 101.41 107.236 102.862L107.241 102.882L111.087 114.846Z" fill="#C00000"/>
</svg>
